HIERARCHY
ROOT root
{
	OFFSET 0.000000 0.000000 0.000000
	CHANNELS 6 Xposition Yposition Zposition Zrotation Yrotation Xrotation
	JOINT lhip
	{
		OFFSET 0.058581 -0.082280 -0.017664
		CHANNELS 3 Zrotation Yrotation Xrotation
		JOINT lknee
		{
			OFFSET 0.043451 -0.386469 0.008037
			CHANNELS 3 Zrotation Yrotation Xrotation
			JOINT lankle
			{
				OFFSET -0.014790 -0.426874 -0.037428
				CHANNELS 3 Zrotation Yrotation Xrotation
				JOINT ltoe
				{
					OFFSET 0.041054 -0.060286 0.122042
					CHANNELS 3 Zrotation Yrotation Xrotation
					End Site
					{
						OFFSET 0.000000 0.000000 0.000000
					}
				}
			}
		}
	}
	JOINT rhip
	{
		OFFSET -0.060310 -0.090513 -0.013543
		CHANNELS 3 Zrotation Yrotation Xrotation
		JOINT rknee
		{
			OFFSET -0.043257 -0.383688 -0.004843
			CHANNELS 3 Zrotation Yrotation Xrotation
			JOINT rankle
			{
				OFFSET 0.019056 -0.420046 -0.034562
				CHANNELS 3 Zrotation Yrotation Xrotation
				JOINT rtoe
				{
					OFFSET -0.034840 -0.062106 0.130323
					CHANNELS 3 Zrotation Yrotation Xrotation
					End Site
					{
						OFFSET 0.000000 0.000000 0.000000
					}
				}
			}
		}
	}
	JOINT lowerback
	{
		OFFSET 0.004439 0.124404 -0.038385
		CHANNELS 3 Zrotation Yrotation Xrotation
		JOINT upperback
		{
			OFFSET 0.004488 0.137956 0.026820
			CHANNELS 3 Zrotation Yrotation Xrotation
			JOINT chest
			{
				OFFSET -0.002265 0.056032 0.002855
				CHANNELS 3 Zrotation Yrotation Xrotation
				JOINT lowerneck
				{
					OFFSET -0.013390 0.211636 -0.033468
					CHANNELS 3 Zrotation Yrotation Xrotation
					JOINT upperneck
					{
						OFFSET 0.010113 0.088937 0.050410
						CHANNELS 3 Zrotation Yrotation Xrotation
						End Site
						{
							OFFSET 0.000000 0.000000 0.000000
						}
					}
				}
				JOINT lclavicle
				{
					OFFSET 0.071702 0.114000 -0.018898
					CHANNELS 3 Zrotation Yrotation Xrotation
					JOINT lshoulder
					{
						OFFSET 0.122921 0.045205 -0.019046
						CHANNELS 3 Zrotation Yrotation Xrotation
						JOINT lelbow
						{
							OFFSET 0.255332 -0.015649 -0.022946
							CHANNELS 3 Zrotation Yrotation Xrotation
							JOINT lwrist
							{
								OFFSET 0.265709 0.012698 -0.007375
								CHANNELS 3 Zrotation Yrotation Xrotation
								End Site
								{
									OFFSET 0.000000 0.000000 0.000000
								}
							}
						}
					}
				}
				JOINT rclavicle
				{
					OFFSET -0.082954 0.112472 -0.023707
					CHANNELS 3 Zrotation Yrotation Xrotation
					JOINT rshoulder
					{
						OFFSET -0.113228 0.046853 -0.008472
						CHANNELS 3 Zrotation Yrotation Xrotation
						JOINT relbow
						{
							OFFSET -0.260127 -0.014369 -0.031269
							CHANNELS 3 Zrotation Yrotation Xrotation
							JOINT rwrist
							{
								OFFSET -0.269108 0.006794 -0.006027
								CHANNELS 3 Zrotation Yrotation Xrotation
								End Site
								{
									OFFSET 0.000000 0.000000 0.000000
								}
							}
						}
					}
				}
			}
		}
	}
}
MOTION
Frames: 8
Frame Time: 0.033333
0.657254 1.002016 0.998387 33.744877 -7.852820 84.143002 2.111411 -1.754143 -13.186740 -1.745963 0.517600 6.471767 -1.836284 9.666910 -1.156861 0.000000 -0.000000 0.000000 5.477965 -0.805026 12.983238 -1.884145 11.814745 12.629277 -1.573810 -6.494531 -16.697848 0.000000 -0.000000 0.000000 -3.045630 6.399541 9.683482 0.357091 -2.620581 -1.679085 -1.047157 -0.324388 1.788469 3.306644 -4.172450 -4.005568 3.763333 -11.803743 -0.585526 -23.357353 6.589497 2.818322 -46.567903 8.888968 10.474947 -12.263311 -21.059325 22.847114 -8.806655 -9.495912 0.726300 20.931215 -0.812397 0.291109 48.073456 -1.704369 19.128655 5.897857 62.466977 21.963145 -1.449901 10.246782 -13.060826 
0.679205 0.979360 0.994729 31.657386 -7.425916 84.693331 2.242669 -1.455082 -13.656704 -1.460295 -1.476052 0.138940 -3.241734 8.161540 -1.619227 0.000000 -0.000000 0.000000 4.805670 -1.036569 13.966571 -1.208407 12.768216 13.840871 -0.591575 -5.803538 -16.873028 0.000000 -0.000000 0.000000 -2.904826 6.447767 9.430239 0.613886 -2.805257 -1.620800 -1.006350 -0.246494 1.714317 3.308776 -3.980854 -4.222493 3.943071 -12.335475 -1.208476 -23.444008 6.428653 2.857030 -45.739142 8.944320 10.223048 -12.126481 -19.503394 21.851934 -8.605550 -9.576232 1.457859 21.111993 -1.265167 -0.027928 47.579901 -2.370482 18.853314 5.564775 63.832911 21.418528 -1.574366 10.425337 -13.140915 
0.701547 0.955572 0.991039 30.179664 -7.124719 84.913192 2.084449 -1.276633 -14.708673 -1.308643 -0.403064 -1.405355 -2.896345 8.304317 -2.097191 0.000000 -0.000000 0.000000 4.125592 -1.230264 15.133401 -0.700675 13.464501 15.368176 0.226306 -4.905101 -16.579701 0.000000 -0.000000 0.000000 -2.963643 6.639744 9.385018 0.916024 -3.192075 -1.750779 -0.824476 -0.340890 1.685615 3.328859 -3.905119 -4.559213 3.457498 -12.340346 -0.549657 -23.326442 6.316516 2.792446 -45.158617 8.672321 9.690302 -11.438123 -18.530355 20.930936 -8.673548 -9.557441 2.354627 20.994866 -1.837476 -0.360966 47.896642 -2.903989 18.632200 4.469253 63.173730 20.256439 -0.499057 11.254692 -12.786346 
0.725184 0.928605 0.987892 29.204723 -7.036688 84.822217 1.750375 -1.629552 -15.872661 -2.126368 1.323996 1.634975 -1.944032 9.690836 -3.418442 0.000000 -0.000000 0.000000 3.104776 -1.546937 16.860551 -0.011758 13.916766 16.596109 0.961734 -4.660539 -15.871186 0.000000 -0.000000 0.000000 -3.322299 7.031291 9.202142 1.285949 -3.874372 -1.775987 -0.776597 -0.599871 1.715890 3.190925 -4.143355 -4.328673 3.517870 -12.413685 -0.235833 -23.103880 5.997125 2.852401 -44.137016 8.289811 9.388456 -11.054517 -18.413250 20.229507 -7.362782 -9.532811 1.779071 21.465999 -2.308879 -0.286280 47.818412 -3.585405 18.437452 3.014331 61.129111 18.913559 -2.437763 9.987328 -11.638602 
0.748892 0.899824 0.984436 27.795015 -7.071373 85.241572 1.410547 -2.660614 -16.802423 -2.524895 0.072329 6.246979 -1.094416 9.948779 -4.435819 0.000000 -0.000000 0.000000 2.002173 -1.512050 17.676309 0.685613 14.434096 18.539001 2.511823 -4.097186 -14.408331 0.000000 -0.000000 0.000000 -3.889805 7.561011 8.411404 1.573733 -4.055208 -2.101172 -0.790964 -0.568335 1.820448 3.175530 -4.774614 -3.805520 3.792612 -12.833834 0.130909 -22.585552 5.805288 3.123925 -42.902675 7.307827 9.239005 -11.024787 -18.720637 19.224845 -5.982123 -9.540040 1.308595 21.892947 -2.759683 -0.221532 48.090849 -4.730188 18.096251 1.987678 58.207613 17.407620 -1.583502 9.612939 -11.003404 
0.773758 0.868252 0.980225 26.546448 -6.985404 85.880800 1.138552 -4.132734 -17.403158 -2.735053 -1.019710 10.397188 0.213870 9.782947 -3.173988 0.000000 -0.000000 0.000000 0.740636 -1.710835 17.969141 1.618871 14.323991 20.937901 4.500702 -3.243899 -11.552702 0.000000 -0.000000 0.000000 -4.348490 7.761741 7.024934 1.856795 -4.223697 -2.341324 -0.992783 -0.467968 1.767193 3.081090 -5.741791 -2.932065 4.268099 -13.537619 0.458666 -22.145519 6.065891 3.081346 -41.507875 6.224168 9.408150 -10.652112 -19.143478 18.296766 -5.256638 -9.840788 0.838723 22.547405 -3.265548 -0.066350 47.941787 -5.772348 18.244855 1.752325 54.299102 17.007094 -0.759752 8.953191 -9.871837 
0.798021 0.836246 0.977219 25.584173 -7.455183 85.952778 1.030522 -5.178442 -18.144383 -3.877987 -1.384831 15.388408 -0.043559 11.010660 -0.494078 0.000000 -0.000000 0.000000 -0.722432 -1.601895 17.532872 2.641440 13.317759 25.617955 6.180890 -3.150573 -7.029950 0.000000 -0.000000 0.000000 -5.451572 7.707238 6.654468 1.993011 -4.430500 -3.090189 -1.060118 -0.495081 2.000557 3.262461 -6.878126 -2.662327 4.789933 -14.814136 2.088260 -22.352732 6.046833 2.872754 -39.525979 5.088673 9.648038 -10.328121 -19.617312 16.343488 -1.209551 -10.216877 -0.392486 23.676915 -3.306256 0.006040 47.814852 -6.211587 18.881276 2.642989 49.203735 15.602665 -4.740334 7.860849 -10.379222 
0.821353 0.804052 0.977530 24.504576 -7.817064 85.446032 0.981538 -5.442676 -16.539390 -5.222401 -0.635184 17.960802 1.612433 11.981918 -1.248632 0.000000 -0.000000 0.000000 -2.387128 -1.747128 15.264171 3.679197 9.802445 33.433419 8.767122 -3.209400 2.279276 0.000000 -0.000000 0.000000 -6.083296 7.357503 7.136380 1.991328 -4.265422 -3.622984 -1.197914 -0.532728 1.458777 2.957183 -9.586147 -1.700189 5.344376 -15.753429 3.404027 -22.837583 5.500825 3.285996 -38.080168 3.695150 8.985854 -8.981097 -19.237136 13.336039 -0.253348 -10.498576 0.264833 24.525231 -3.005849 0.172074 47.972612 -6.936422 18.677403 2.351724 43.045814 15.148881 -1.241334 7.664704 -7.243167 
